####
#
# OBJ File Generated by Meshlab
#
####
# Object elephant.obj
#
# Vertices: 127
# Faces: 250
#
####
vn -0.832374 -0.192459 0.519724
v -55.750362 87.494652 -17.010740
vn -0.458389 0.271100 0.846395
v -50.821648 108.669762 -17.099400
vn -0.418910 -0.484730 0.767822
v -38.881168 63.382362 -12.211386
vn -0.251937 -0.019519 0.967547
v -36.793671 104.632622 -20.409899
vn -0.644072 0.435835 -0.628664
v -53.753536 105.067680 -22.171253
vn -0.888526 0.082578 -0.451333
v -45.647652 48.671452 -3.370618
vn -0.262715 0.901298 -0.344447
v -39.219540 63.198025 0.048723
vn -0.223946 0.032938 0.974045
v -38.691139 83.051628 -18.279903
vn -0.499248 0.395313 0.771025
v -38.979580 60.239647 14.904291
vn -0.645709 -0.713662 -0.271562
v -43.998142 41.353912 1.044917
vn -0.461044 -0.538299 -0.705459
v -39.195076 66.790558 -19.655460
vn -0.170415 -0.089240 -0.981323
v -31.585148 52.847626 -8.466617
vn -0.079669 -0.730012 0.678775
v -37.935211 41.937950 14.710626
vn 0.135127 0.439860 -0.887842
v -30.529186 115.238960 -24.416382
vn -0.377801 0.691135 0.616116
v -31.918633 122.488586 -15.375045
vn -0.075700 -0.129688 -0.988661
v -39.345558 92.642517 -26.110680
vn 0.322673 -0.705777 -0.630683
v -29.169491 59.639103 -17.000181
vn -0.355697 0.063234 0.932460
v -24.359657 114.768921 -14.387685
vn -0.647367 -0.730721 -0.216709
v -21.664604 41.994251 -0.448557
vn -0.646793 -0.579168 0.496209
v -21.149410 78.914032 -7.856786
vn -0.776465 -0.438537 0.452533
v -21.373507 81.957924 11.984086
vn -0.949457 0.261625 0.173449
v -23.013451 107.010468 4.638094
vn -0.789713 0.309030 0.529957
v -19.579636 106.006569 16.102577
vn -0.629938 -0.600056 -0.493063
v -22.176241 -2.775318 -9.012800
vn 0.040299 -0.135028 -0.990022
v -19.894495 96.843872 -21.700247
vn -0.888310 0.205781 0.410561
v -25.670689 99.297882 -10.236787
vn -0.986063 -0.002540 0.166355
v -20.389404 24.613308 -0.420291
vn -0.812467 0.581452 0.042555
v -15.039652 120.954712 2.827371
vn -0.372048 0.924081 -0.087490
v -16.157387 115.490211 -12.351044
vn -0.895952 -0.111083 -0.430036
v -20.711531 34.711021 -5.890161
vn 0.238137 0.858882 0.453444
v -13.241889 57.251133 4.138102
vn -0.589598 -0.271455 0.760714
v -18.677986 -2.673244 9.617929
vn -0.621961 0.095214 -0.777238
v -16.854115 48.862240 -9.659497
vn -0.951445 0.007999 0.307715
v -19.397089 36.780739 7.950474
vn -0.826381 -0.170772 0.536593
v -10.406493 92.858070 25.408247
vn -0.746895 -0.058940 0.662325
v -14.101797 33.890553 18.362432
vn -0.681764 0.210596 0.700605
v -18.988997 12.116920 7.705697
vn -0.343671 0.802451 -0.487814
v -14.706263 58.201664 -5.113052
vn 0.308685 -0.374532 0.874322
v -18.461143 74.797844 -10.184285
vn -0.014588 0.407546 -0.913068
v -14.495152 108.713364 -21.470810
vn -0.785220 -0.363570 0.501246
v -6.989983 70.508675 2.838346
vn -0.415693 -0.133096 0.899714
v -13.434799 19.390553 8.197479
vn -0.335522 -0.565486 0.753426
v -11.345633 21.977697 13.941300
vn -0.445499 -0.072000 -0.892383
v -13.245338 19.623629 -8.881486
vn -0.302274 0.550950 0.777872
v -7.870504 51.953850 13.876018
vn -0.578905 0.197284 -0.791169
v -10.853163 44.716190 -18.223936
vn 0.699708 -0.488242 0.521564
v -5.822114 -2.696001 8.288071
vn -0.119472 -0.476018 -0.871283
v -2.331630 26.756361 -18.801470
vn -0.891204 0.018347 0.453232
v -9.571849 92.544304 42.288769
vn 0.062983 0.052946 0.996609
v 2.062688 32.999523 24.813658
vn 0.562027 -0.316101 -0.764334
v -6.841824 -2.745650 -11.845996
vn -0.072037 -0.580484 -0.811079
v -1.649253 75.601128 -18.670898
vn -0.272664 -0.239915 -0.931716
v -13.917995 88.223801 -22.682642
vn -0.388480 0.897332 0.209471
v -10.084786 125.773445 5.934504
vn -0.885729 -0.131193 -0.445278
v -7.360559 80.266273 35.438080
vn -0.719604 -0.166612 -0.674100
v -6.170618 69.398941 -5.334011
vn 0.759949 -0.072055 0.645976
v -6.163420 13.132513 5.016200
vn 0.604074 -0.761604 -0.234637
v -4.737765 15.347670 -4.628431
vn -0.416588 -0.355152 0.836852
v -3.192226 53.445660 41.179775
vn 0.583227 -0.228426 0.779531
v 4.829445 80.879990 48.925285
vn -0.398644 -0.895967 0.195772
v -3.176847 85.276833 25.776947
vn -0.319431 -0.651402 -0.688215
v 6.396401 16.158024 -6.185396
vn -0.306801 -0.635430 -0.708592
v -2.211607 54.816029 28.312288
vn 0.425513 0.115349 -0.897571
v 7.819922 57.672783 -15.485097
vn -0.110068 0.849279 -0.516343
v -4.274823 120.786919 -12.283571
vn 0.062670 -0.058025 0.996346
v -1.069241 63.574532 38.688034
vn 0.932116 -0.056863 -0.357668
v 5.965341 67.215614 28.147778
vn 0.367301 0.679086 0.635556
v 5.089160 113.261192 23.828259
vn -0.010885 0.032270 0.999420
v -0.863782 67.808762 5.167656
vn -0.743933 -0.484887 -0.459836
v 2.822917 -2.682731 -8.267430
vn 0.745285 -0.445003 0.496510
v 4.038233 52.596897 40.098160
vn 0.012255 0.212893 -0.976999
v 1.673626 47.145702 -21.621332
vn -0.486702 0.610183 0.625138
v -4.862414 109.695419 26.495886
vn 0.045335 -0.778310 0.626242
v 3.443120 76.080589 18.272734
vn 0.058076 -0.067129 -0.996053
v 4.795204 94.942993 -26.973265
vn -0.405922 -0.722610 0.559519
v 6.702075 16.506104 4.969295
vn 0.337889 0.471167 0.814759
v 6.909062 48.418320 16.971224
vn 0.028012 -0.769652 0.637849
v 1.207084 21.436113 21.374792
vn 0.873201 -0.380801 -0.304155
v 8.407435 82.466759 36.559978
vn 0.571674 0.482660 0.663497
v 6.839029 97.660477 43.860653
vn 0.801102 -0.254609 0.541673
v 9.786127 90.678772 26.046091
vn 0.490077 0.871006 0.034264
v 11.991543 124.970039 3.136408
vn 0.841977 -0.163033 0.514290
v 8.747408 70.807602 0.717110
vn -0.485421 -0.320039 0.813598
v 8.757907 -1.684047 9.524035
vn -0.168550 -0.518391 -0.838368
v 16.962368 79.952682 -17.600096
vn 0.630866 -0.109727 -0.768094
v 14.973660 33.718422 -16.093571
vn 0.752522 0.321304 0.574870
v 17.494614 108.551743 17.608040
vn -0.076345 0.046554 -0.995994
v 22.592512 97.707863 -22.412130
vn 0.657536 -0.340853 0.671912
v 12.704542 27.454409 17.873241
vn 0.049270 0.695525 -0.716810
v 13.247665 113.138481 -19.002253
vn 0.306869 -0.189535 -0.932689
v 15.718293 20.952415 -8.249573
vn 0.595453 -0.269014 -0.757012
v 20.439146 -2.754664 -11.108832
vn 0.545778 -0.178132 0.818777
v 14.627148 20.950500 8.770321
vn 0.123356 0.744108 0.656572
v 13.737142 57.712856 3.735702
vn 0.685530 -0.634835 0.356416
v 19.442892 80.911827 12.731799
vn 0.421994 0.094528 0.901657
v 17.800674 47.571316 8.388968
vn 0.496750 -0.844968 0.198161
v 15.616049 76.147606 -8.151683
vn 0.984973 -0.009127 -0.172467
v 20.549753 26.172464 -2.599444
vn 0.927307 0.352963 0.124571
v 24.059263 105.813728 3.075806
vn 0.645810 -0.665861 0.373576
v 21.837315 42.511116 2.710999
vn 0.645134 -0.583420 0.493380
v 22.928135 -2.724077 7.013668
vn 0.942114 -0.074004 0.327025
v 25.143795 90.396042 7.570335
vn 0.631985 0.666358 0.395679
v 18.815208 113.980209 -11.371508
vn -0.244169 0.965491 0.090604
v 28.119467 123.736122 -15.246881
vn 0.924551 0.136178 0.355896
v 25.660538 98.279533 -11.016100
vn 0.751629 -0.193931 0.630432
v 24.484089 83.789673 -10.980426
vn 0.333625 0.403363 -0.852052
v 25.702826 55.015446 -8.552031
vn -0.337916 -0.938338 0.073040
v 25.618839 59.114117 -13.229621
vn -0.100823 0.895963 -0.432533
v 28.931225 61.289772 -3.865070
vn 0.578720 -0.386498 -0.718124
v 19.765886 44.695732 -8.273582
vn -0.119081 0.149967 -0.981494
v 33.620266 107.361275 -25.666029
vn 0.025244 -0.410618 -0.911458
v 33.825268 66.957855 -20.036901
vn 0.168118 -0.085067 0.982090
v 26.736792 64.375137 -10.713704
vn 0.480589 0.743648 0.464782
v 40.550735 62.631744 11.936894
vn 0.151547 -0.444445 0.882894
v 38.135174 44.461555 17.328434
vn 0.541327 0.533749 -0.649674
v 46.070778 113.582588 -22.420956
vn 0.619735 -0.577597 0.531328
v 41.303493 66.638710 -12.498970
vn 0.137315 0.181719 0.973716
v 39.040703 84.930618 -18.898508
vn 0.202133 -0.979250 -0.014548
v 39.798412 39.827415 5.434856
vn 0.567451 0.575260 -0.589131
v 44.701241 59.826283 -1.409993
vn 0.569810 -0.196633 -0.797905
v 53.755390 90.649330 -23.732985
vn 0.285546 -0.016064 0.958230
v 37.795639 104.828667 -20.396353
vn 0.473541 0.077058 0.877394
v 57.221230 94.666595 -17.369631
vn -0.406510 0.129583 0.904410
v -16.794249 47.658726 7.632474
vn 0.862119 -0.349363 -0.367010
v 45.548534 45.266457 -2.060769
vn 0.069347 -0.774216 -0.629111
v -15.085648 78.287666 -16.270802
vn -0.987155 0.150221 -0.054402
v -22.881710 15.682362 -0.407164
# 127 vertices, 0 vertices normals

f 1//1 2//2 5//5
f 5//5 16//16 1//1
f 16//16 11//11 1//1
f 1//1 4//4 2//2
f 11//11 3//3 1//1
f 8//8 4//4 1//1
f 3//3 8//8 1//1
f 14//14 16//16 5//5
f 9//9 6//6 10//10
f 6//6 9//9 7//7
f 15//15 5//5 2//2
f 15//15 14//14 5//5
f 12//12 6//6 7//7
f 19//19 13//13 10//10
f 10//10 13//13 9//9
f 2//2 4//4 15//15
f 18//18 15//15 4//4
f 13//13 124//124 9//9
f 11//11 16//16 17//17
f 31//31 7//7 9//9
f 6//6 12//12 10//10
f 31//31 9//9 124//124
f 39//39 8//8 3//3
f 14//14 25//25 16//16
f 17//17 16//16 25//25
f 12//12 19//19 10//10
f 19//19 124//124 13//13
f 17//17 25//25 126//126
f 3//3 11//11 17//17
f 4//4 26//26 18//18
f 12//12 33//33 19//19
f 8//8 20//20 4//4
f 17//17 39//39 3//3
f 4//4 20//20 26//26
f 29//29 14//14 15//15
f 20//20 21//21 26//26
f 21//21 22//22 26//26
f 7//7 38//38 12//12
f 33//33 12//12 38//38
f 21//21 23//23 22//22
f 39//39 20//20 8//8
f 25//25 14//14 40//40
f 40//40 14//14 29//29
f 24//24 32//32 127//127
f 31//31 38//38 7//7
f 18//18 29//29 15//15
f 39//39 17//17 126//126
f 31//31 45//45 38//38
f 23//23 21//21 35//35
f 28//28 26//26 22//22
f 127//127 37//37 27//27
f 18//18 26//26 29//29
f 30//30 34//34 19//19
f 28//28 29//29 26//26
f 25//25 53//53 126//126
f 24//24 127//127 44//44
f 30//30 19//19 33//33
f 27//27 34//34 30//30
f 27//27 36//36 34//34
f 37//37 127//127 32//32
f 44//44 127//127 27//27
f 37//37 42//42 27//27
f 124//124 19//19 34//34
f 24//24 47//47 32//32
f 23//23 28//28 22//22
f 21//21 20//20 41//41
f 44//44 51//51 24//24
f 30//30 44//44 27//27
f 23//23 35//35 73//73
f 27//27 42//42 36//36
f 56//56 41//41 20//20
f 46//46 30//30 33//33
f 48//48 44//44 30//30
f 46//46 48//48 30//30
f 36//36 124//124 34//34
f 56//56 20//20 126//126
f 20//20 39//39 126//126
f 40//40 53//53 25//25
f 42//42 37//37 32//32
f 54//54 29//29 28//28
f 54//54 28//28 23//23
f 42//42 43//43 36//36
f 31//31 124//124 45//45
f 47//47 42//42 32//32
f 38//38 46//46 33//33
f 61//61 35//35 21//21
f 124//124 36//36 45//45
f 65//65 40//40 29//29
f 45//45 41//41 38//38
f 126//126 53//53 52//52
f 54//54 65//65 29//29
f 56//56 46//46 38//38
f 47//47 57//57 42//42
f 23//23 73//73 54//54
f 57//57 43//43 42//42
f 41//41 56//56 38//38
f 50//50 45//45 36//36
f 35//35 49//49 73//73
f 48//48 58//58 44//44
f 44//44 58//58 51//51
f 126//126 52//52 56//56
f 50//50 36//36 43//43
f 75//75 53//53 40//40
f 61//61 49//49 35//35
f 61//61 55//55 49//49
f 69//69 41//41 45//45
f 41//41 74//74 21//21
f 61//61 21//21 74//74
f 46//46 72//72 48//48
f 55//55 66//66 49//49
f 58//58 43//43 57//57
f 47//47 24//24 51//51
f 69//69 74//74 41//41
f 72//72 46//46 56//56
f 43//43 58//58 78//78
f 68//68 82//82 54//54
f 75//75 52//52 53//53
f 72//72 56//56 64//64
f 67//67 63//63 55//55
f 58//58 57//57 47//47
f 78//78 50//50 43//43
f 65//65 90//90 40//40
f 66//66 55//55 59//59
f 63//63 59//59 55//55
f 66//66 60//60 49//49
f 60//60 80//80 49//49
f 58//58 47//47 51//51
f 68//68 54//54 73//73
f 76//76 78//78 58//58
f 62//62 76//76 58//58
f 80//80 73//73 49//49
f 54//54 82//82 65//65
f 69//69 45//45 77//77
f 77//77 45//45 50//50
f 59//59 63//63 71//71
f 55//55 61//61 79//79
f 52//52 64//64 56//56
f 55//55 79//79 67//67
f 66//66 59//59 71//71
f 74//74 81//81 61//61
f 75//75 40//40 90//90
f 48//48 62//62 58//58
f 77//77 83//83 69//69
f 80//80 68//68 73//73
f 75//75 85//85 52//52
f 81//81 79//79 61//61
f 72//72 86//86 48//48
f 88//88 85//85 75//75
f 66//66 71//71 67//67
f 76//76 62//62 70//70
f 64//64 86//86 72//72
f 63//63 67//67 71//71
f 60//60 66//66 67//67
f 52//52 97//97 64//64
f 76//76 89//89 78//78
f 50//50 78//78 89//89
f 85//85 97//97 52//52
f 82//82 90//90 65//65
f 95//95 81//81 74//74
f 84//84 76//76 70//70
f 97//97 83//83 64//64
f 93//93 76//76 84//84
f 92//92 101//101 70//70
f 60//60 79//79 80//80
f 83//83 74//74 69//69
f 101//101 84//84 70//70
f 96//96 94//94 77//77
f 62//62 48//48 91//91
f 88//88 75//75 90//90
f 81//81 68//68 80//80
f 87//87 68//68 81//81
f 81//81 80//80 79//79
f 93//93 89//89 76//76
f 91//91 70//70 62//62
f 70//70 91//91 92//92
f 86//86 91//91 48//48
f 50//50 96//96 77//77
f 89//89 96//96 50//50
f 68//68 87//87 82//82
f 95//95 74//74 83//83
f 94//94 83//83 77//77
f 84//84 101//101 93//93
f 83//83 107//107 64//64
f 82//82 103//103 90//90
f 97//97 95//95 83//83
f 94//94 107//107 83//83
f 89//89 100//100 96//96
f 64//64 110//110 86//86
f 110//110 64//64 107//107
f 93//93 100//100 89//89
f 86//86 98//98 91//91
f 98//98 100//100 93//93
f 109//109 107//107 94//94
f 104//104 88//88 90//90
f 99//99 103//103 82//82
f 87//87 99//99 82//82
f 111//111 88//88 104//104
f 98//98 92//92 91//91
f 106//106 95//95 97//97
f 86//86 110//110 98//98
f 108//108 97//97 85//85
f 102//102 81//81 95//95
f 102//102 87//87 81//81
f 93//93 101//101 98//98
f 100//100 98//98 110//110
f 108//108 113//113 97//97
f 99//99 105//105 103//103
f 87//87 102//102 99//99
f 88//88 112//112 85//85
f 119//119 100//100 110//110
f 112//112 108//108 85//85
f 92//92 98//98 101//101
f 106//106 97//97 113//113
f 106//106 102//102 95//95
f 109//109 94//94 114//114
f 115//115 96//96 100//100
f 105//105 99//99 102//102
f 106//106 105//105 102//102
f 104//104 90//90 103//103
f 88//88 111//111 112//112
f 104//104 103//103 122//122
f 100//100 119//119 115//115
f 113//113 118//118 106//106
f 103//103 105//105 122//122
f 106//106 122//122 105//105
f 104//104 116//116 111//111
f 115//115 94//94 96//96
f 118//118 122//122 106//106
f 108//108 117//117 113//113
f 113//113 117//117 118//118
f 112//112 117//117 108//108
f 114//114 120//120 109//109
f 115//115 114//114 94//94
f 107//107 125//125 110//110
f 120//120 107//107 109//109
f 107//107 120//120 125//125
f 111//111 121//121 112//112
f 125//125 119//119 110//110
f 121//121 117//117 112//112
f 125//125 114//114 115//115
f 125//125 115//115 119//119
f 123//123 122//122 118//118
f 116//116 121//121 111//111
f 125//125 120//120 114//114
f 123//123 104//104 122//122
f 121//121 123//123 117//117
f 123//123 118//118 117//117
f 123//123 116//116 104//104
f 123//123 121//121 116//116
f 79//79 60//60 67//67
# 250 faces, 0 coords texture

# End of File
